<svg width="118" height="116" viewBox="0 0 118 116" fill="none" xmlns="http://www.w3.org/2000/svg">
<path d="M24.4734 24.094C29.8722 24.094 34.2628 19.7715 34.2628 14.4564C34.2628 9.14125 29.8722 4.81879 24.4734 4.81879C19.0746 4.81879 14.684 9.14125 14.684 14.4564C14.684 19.7715 19.0746 24.094 24.4734 24.094ZM24.4734 9.63759C27.1704 9.63759 29.3681 11.7964 29.3681 14.4564C29.3681 17.1164 27.1704 19.2752 24.4734 19.2752C21.7764 19.2752 19.5787 17.1164 19.5787 14.4564C19.5787 11.7964 21.7764 9.63759 24.4734 9.63759ZM59.2991 24.094C66.0439 24.094 71.5358 18.6921 71.5358 12.047C71.5358 5.40187 66.0439 0 59.2991 0C52.5542 0 47.0624 5.40187 47.0624 12.047C47.0624 18.6921 52.5542 24.094 59.2991 24.094ZM59.2991 4.81879C63.347 4.81879 66.6411 8.06184 66.6411 12.047C66.6411 16.0321 63.347 19.2752 59.2991 19.2752C55.2512 19.2752 51.957 16.0321 51.957 12.047C51.957 8.06184 55.2512 4.81879 59.2991 4.81879ZM92.9989 24.094C98.3978 24.094 102.788 19.7715 102.788 14.4564C102.788 9.14125 98.3978 4.81879 92.9989 4.81879C87.6001 4.81879 83.2096 9.14125 83.2096 14.4564C83.2096 19.7715 87.6001 24.094 92.9989 24.094ZM92.9989 9.63759C95.6959 9.63759 97.8936 11.7964 97.8936 14.4564C97.8936 17.1164 95.6959 19.2752 92.9989 19.2752C90.302 19.2752 88.1043 17.1164 88.1043 14.4564C88.1043 11.7964 90.302 9.63759 92.9989 9.63759ZM112.578 57.8255C112.578 64.6297 111.222 71.1158 108.838 77.1007H84.8297C86.8023 71.0869 88.1043 64.6248 88.1043 57.8255H83.2096C83.2096 64.6056 81.7803 71.0917 79.6267 77.1007H37.8359C35.692 71.0965 34.2628 64.6056 34.2628 57.8255H29.3681C29.3681 64.6248 30.6652 71.0869 32.6426 77.1007H8.63422C6.25051 71.1158 4.89468 64.6297 4.89468 57.8255H0C0 89.7115 26.3481 115.651 58.7362 115.651C91.1243 115.651 117.472 89.7115 117.472 57.8255H112.578ZM77.7129 81.9195C71.6973 95.6001 62.461 105.97 58.7313 109.811C54.9966 105.97 45.7604 95.6049 39.7448 81.9195H77.7129ZM10.8368 81.9195H34.4047C39.6273 94.7809 47.6791 104.958 52.6717 110.471C34.3949 108.442 18.8886 97.3686 10.8368 81.9195ZM64.8056 110.471C69.7933 104.958 77.845 94.7809 83.0725 81.9195H106.636C98.5838 97.3686 83.0823 108.442 64.8056 110.471ZM44.0521 48.1879H39.1574V38.5504C39.1574 33.2352 43.548 28.9128 48.9468 28.9128H68.5255C73.9244 28.9128 78.3149 33.2352 78.3149 38.5504V48.1879H73.4202V38.5504C73.4202 35.8904 71.2225 33.7316 68.5255 33.7316H48.9468C46.2498 33.7316 44.0521 35.8904 44.0521 38.5504V48.1879ZM9.78936 48.1879H4.89468V38.5504C4.89468 33.2352 9.28521 28.9128 14.684 28.9128H32.0895C31.2036 30.4066 30.5134 32.0161 30.0631 33.7316H14.684C11.9871 33.7316 9.78936 35.8904 9.78936 38.5504V48.1879ZM102.788 28.9128C108.187 28.9128 112.578 33.2352 112.578 38.5504V48.1879H107.683V38.5504C107.683 35.8904 105.485 33.7316 102.788 33.7316H87.4092C86.954 32.0161 86.2688 30.4066 85.3828 28.9128H102.788Z" fill="white"/>
</svg>
