<svg width="115" height="115" viewBox="0 0 115 115" fill="none" xmlns="http://www.w3.org/2000/svg">
<path d="M65.6758 20.8662C65.7671 20.5239 65.9249 20.203 66.1403 19.9217C66.3556 19.6405 66.6243 19.4045 66.931 19.2272C67.2376 19.0499 67.5762 18.9347 67.9274 18.8884C68.2786 18.842 68.6354 18.8653 68.9776 18.957C75.4876 20.6551 81.4272 24.0581 86.1845 28.8154C90.9419 33.5728 94.3449 39.5124 96.043 46.0224C96.1347 46.3646 96.158 46.7214 96.1116 47.0726C96.0653 47.4238 95.9501 47.7624 95.7728 48.069C95.5955 48.3757 95.3595 48.6444 95.0783 48.8597C94.797 49.0751 94.4761 49.2329 94.1338 49.3242C93.9067 49.3843 93.6726 49.4145 93.4376 49.414C92.8437 49.4144 92.2664 49.2186 91.7952 48.8571C91.3241 48.4956 90.9855 47.9887 90.8321 47.415C89.3742 41.8231 86.4515 36.721 82.3652 32.6348C78.279 28.5485 73.1769 25.6258 67.585 24.1679C67.2427 24.0767 66.9218 23.9188 66.6406 23.7035C66.3594 23.4881 66.1233 23.2194 65.946 22.9128C65.7687 22.6061 65.6536 22.2675 65.6072 21.9164C65.5609 21.5652 65.5842 21.2083 65.6758 20.8662ZM63.9913 38.5429C70.5274 40.2859 74.7141 44.4726 76.4571 51.0087C76.6105 51.5824 76.9491 52.0894 77.4202 52.4509C77.8914 52.8124 78.4687 53.0081 79.0626 53.0078C79.2976 53.0083 79.5317 52.9781 79.7588 52.9179C80.1011 52.8267 80.422 52.6688 80.7033 52.4535C80.9845 52.2381 81.2205 51.9694 81.3978 51.6628C81.5751 51.3561 81.6903 51.0175 81.7366 50.6664C81.783 50.3152 81.7597 49.9583 81.668 49.6162C79.4219 41.2113 73.7887 35.5781 65.3838 33.332C65.0417 33.2405 64.6849 33.2174 64.3338 33.2638C63.9827 33.3103 63.6441 33.4255 63.3376 33.6027C63.031 33.78 62.7623 34.016 62.5469 34.2971C62.3315 34.5782 62.1735 34.899 62.0821 35.2412C61.9906 35.5833 61.9675 35.9401 62.014 36.2912C62.0604 36.6423 62.1756 36.9808 62.3529 37.2874C62.5301 37.594 62.7661 37.8627 63.0472 38.0781C63.3283 38.2935 63.6491 38.4515 63.9913 38.5429ZM99.6772 82.1171C98.9076 87.9895 96.0258 93.3806 91.5705 97.2828C87.1152 101.185 81.3913 103.331 75.4688 103.32C40.295 103.32 11.6797 74.705 11.6797 39.5312C11.6684 33.6107 13.8127 27.8885 17.7122 23.4335C21.6116 18.9785 26.9995 16.0955 32.8694 15.3228C34.2206 15.1586 35.5887 15.4372 36.7681 16.1168C37.9474 16.7964 38.8745 17.8403 39.41 19.0917L48.8885 40.2499C49.307 41.2078 49.4802 42.2549 49.3924 43.2965C49.3045 44.3381 48.9584 45.3413 48.3854 46.2156C48.3276 46.3046 48.2646 46.3901 48.1967 46.4716L38.7317 57.729C38.6742 57.8457 38.6443 57.9741 38.6443 58.1041C38.6443 58.2342 38.6742 58.3625 38.7317 58.4792C42.1727 65.523 49.5579 72.8542 56.7004 76.2908C56.8197 76.3451 56.95 76.371 57.081 76.3663C57.2119 76.3617 57.34 76.3266 57.4551 76.2638L68.5463 66.8302C68.6257 66.7615 68.7097 66.6985 68.7979 66.6415C69.6682 66.0613 70.6696 65.7073 71.7113 65.6116C72.7529 65.5159 73.802 65.6815 74.7635 66.0935L95.9846 75.6035C97.2194 76.1507 98.2452 77.0809 98.9102 78.2564C99.5752 79.432 99.8442 80.7904 99.6772 82.1306V82.1171ZM94.336 81.4523C94.3511 81.2645 94.3067 81.0766 94.2091 80.9154C94.1116 80.7542 93.9658 80.6277 93.7924 80.5539L72.5668 71.0439C72.4509 70.9991 72.3266 70.98 72.2026 70.9877C72.0785 70.9955 71.9576 71.03 71.8481 71.0888L60.7614 80.5224C60.6805 80.5898 60.5952 80.6527 60.5098 80.7111C59.6055 81.3141 58.5603 81.6725 57.4762 81.7512C56.3921 81.8299 55.306 81.6264 54.3241 81.1603C46.0764 77.1757 37.8557 69.0314 33.8711 60.8601C33.4025 59.8838 33.1939 58.8031 33.2655 57.7225C33.3371 56.642 33.6865 55.5982 34.2799 54.6923C34.3381 54.6025 34.4027 54.5169 34.4731 54.4363L43.9291 43.1654C43.9832 43.0477 44.0112 42.9198 44.0112 42.7903C44.0112 42.6608 43.9832 42.5328 43.9291 42.4152L34.4731 21.2525C34.4107 21.0825 34.2983 20.9354 34.1508 20.8304C34.0033 20.7254 33.8276 20.6674 33.6465 20.664H33.5432C28.9744 21.2718 24.783 23.5217 21.7516 26.9936C18.7203 30.4656 17.0563 34.9222 17.0704 39.5312C17.0704 71.7312 43.2688 97.9296 75.4688 97.9296C80.0785 97.9435 84.5357 96.2789 88.0077 93.2467C91.4798 90.2144 93.7292 86.0219 94.336 81.4523Z" fill="url(#paint0_linear_343_248)"/>
<defs>
<linearGradient id="paint0_linear_343_248" x1="55.7026" y1="15.2769" x2="55.7026" y2="103.32" gradientUnits="userSpaceOnUse">
<stop stop-color="#B9252F"/>
<stop offset="1" stop-color="#6A2C2D"/>
</linearGradient>
</defs>
</svg>
