<svg width="31" height="31" viewBox="0 0 31 31" fill="none" xmlns="http://www.w3.org/2000/svg">
<path d="M15.1087 11.6392L15.4768 11.895L15.8448 11.6392C16.0928 11.4661 21.9345 7.36896 21.9345 3.78458C21.9345 1.69725 20.3421 0 18.3828 0C17.1545 0 16.1083 0.561875 15.4768 1.457C14.8452 0.561875 13.799 0 12.5707 0C10.6114 0 9.01896 1.69725 9.01896 3.78458C9.01896 7.36767 14.8594 11.4661 15.1087 11.6392ZM12.5707 1.29167C13.8804 1.29167 14.831 2.24233 14.831 3.55208H14.8555V3.875H16.1471V3.193C16.3033 2.07183 17.1958 1.29167 18.3828 1.29167C19.6291 1.29167 20.643 2.41025 20.643 3.78458C20.643 6.02562 17.2023 9.03521 15.4768 10.3127C13.7512 9.0365 10.3105 6.0295 10.3105 3.78458C10.3105 2.41025 11.3244 1.29167 12.5707 1.29167ZM31 7.10417V24.1942C31 24.9925 30.7042 25.7623 30.1669 26.359L26.0378 31H24.302L29.2086 25.4936C29.5315 25.1358 29.7084 24.6734 29.7084 24.1942V7.10417C29.7084 6.03596 28.8392 5.16667 27.7711 5.16667C26.703 5.16667 25.8338 6.03596 25.8338 7.10417V18.7292H25.8273C25.8273 19.4654 25.578 20.2017 25.0782 20.7971L21.077 24.9382L20.1483 24.0405L24.1186 19.9343C24.4014 19.5959 24.5435 19.1657 24.5409 18.7305V18.6775C24.5267 18.2332 24.364 17.7875 24.0475 17.4349C23.3372 16.6431 22.1141 16.5747 21.3185 17.2851L16.3473 21.8602C16.634 22.351 16.7903 22.9129 16.7903 23.4902V31H15.4987V23.4902C15.4987 22.9503 15.2701 22.4298 14.8736 22.0642L9.67378 17.2786C8.88722 16.5734 7.66282 16.6405 6.95117 17.4336C6.31314 18.1453 6.29635 19.2342 6.90984 19.9653L10.8504 24.0379L9.92176 24.9356L5.9515 20.8294C5.43617 20.2172 5.18044 19.4706 5.17657 18.7279H5.16624V7.10417C5.16624 6.03596 4.29702 5.16667 3.2289 5.16667C2.16078 5.16667 1.29156 6.03596 1.29156 7.10417V24.1942C1.29156 24.6734 1.4685 25.1358 1.79139 25.4936L6.69802 31H4.96217L0.833056 26.359C0.295767 25.7623 0 24.9925 0 24.1942V7.10417C0 5.32425 1.44913 3.875 3.2289 3.875C5.00867 3.875 6.4578 5.32425 6.4578 7.10417V16.1432C7.66282 15.2404 9.3793 15.2817 10.5417 16.3228L15.4987 20.885L20.4493 16.328C21.6168 15.2804 23.3346 15.2404 24.5396 16.1432V7.10417C24.5396 5.32425 25.9888 3.875 27.7685 3.875C29.5483 3.875 30.9974 5.32425 30.9974 7.10417H31Z" fill="white"/>
</svg>
