<svg width="100" height="100" viewBox="0 0 100 100" fill="none" xmlns="http://www.w3.org/2000/svg">
<path d="M48.7376 37.5458L49.925 38.3708L51.1124 37.5458C51.9123 36.9875 70.7566 23.7708 70.7566 12.2083C70.7566 5.475 65.6195 0 59.2992 0C55.3371 0 51.9623 1.8125 49.925 4.7C47.8877 1.8125 44.513 0 40.5508 0C34.2305 0 29.0934 5.475 29.0934 12.2083C29.0934 23.7667 47.9335 36.9875 48.7376 37.5458ZM40.5508 4.16667C44.7754 4.16667 47.8418 7.23333 47.8418 11.4583H47.921V12.5H52.0873V10.3C52.5914 6.68333 55.4704 4.16667 59.2992 4.16667C63.3197 4.16667 66.5903 7.775 66.5903 12.2083C66.5903 19.4375 55.4912 29.1458 49.925 33.2667C44.3588 29.15 33.2597 19.45 33.2597 12.2083C33.2597 7.775 36.5303 4.16667 40.5508 4.16667ZM100 22.9167V78.0458C100 80.6208 99.0459 83.1042 97.3127 85.0292L83.993 100H78.3935L94.2213 82.2375C95.2629 81.0833 95.8337 79.5917 95.8337 78.0458V22.9167C95.8337 19.4708 93.0297 16.6667 89.5842 16.6667C86.1387 16.6667 83.3347 19.4708 83.3347 22.9167V60.4167H83.3139C83.3139 62.7917 82.5098 65.1667 80.8974 67.0875L67.9902 80.4458L64.9946 77.55L77.8018 64.3042C78.7143 63.2125 79.1726 61.825 79.1642 60.4208V60.25C79.1184 58.8167 78.5935 57.3792 77.5727 56.2417C75.2812 53.6875 71.3357 53.4667 68.7693 55.7583L52.7331 70.5167C53.658 72.1 54.1621 73.9125 54.1621 75.775V100H49.9958V75.775C49.9958 74.0333 49.2584 72.3542 47.9793 71.175L31.2057 55.7375C28.6684 53.4625 24.7188 53.6792 22.4231 56.2375C20.365 58.5333 20.3108 62.0458 22.2898 64.4042L35.0013 77.5417L32.0057 80.4375L19.1984 67.1917C17.536 65.2167 16.7111 62.8083 16.6986 60.4125H16.6653V22.9167C16.6653 19.4708 13.8613 16.6667 10.4158 16.6667C6.97025 16.6667 4.16632 19.4708 4.16632 22.9167V78.0458C4.16632 79.5917 4.7371 81.0833 5.77868 82.2375L21.6065 100H16.007L2.68728 85.0292C0.954087 83.1042 0 80.6208 0 78.0458V22.9167C0 17.175 4.67461 12.5 10.4158 12.5C16.157 12.5 20.8316 17.175 20.8316 22.9167V52.075C24.7188 49.1625 30.2558 49.2958 34.0055 52.6542L49.9958 67.3708L65.9653 52.6708C69.7317 49.2917 75.2729 49.1625 79.1601 52.075V22.9167C79.1601 17.175 83.8347 12.5 89.5759 12.5C95.317 12.5 99.9917 17.175 99.9917 22.9167H100Z" fill="url(#paint0_linear_343_206)"/>
<defs>
<linearGradient id="paint0_linear_343_206" x1="50" y1="0" x2="50" y2="100" gradientUnits="userSpaceOnUse">
<stop stop-color="#B9252F"/>
<stop offset="1" stop-color="#6A2C2D"/>
</linearGradient>
</defs>
</svg>
