<svg width="23" height="23" viewBox="0 0 23 23" fill="none" xmlns="http://www.w3.org/2000/svg">
<path d="M11.494 6.44C10.4938 6.44 9.51597 6.73676 8.68429 7.29276C7.85261 7.84876 7.20439 8.63903 6.82161 9.56362C6.43884 10.4882 6.33868 11.5056 6.53382 12.4872C6.72896 13.4687 7.21063 14.3703 7.91791 15.078C8.6252 15.7856 9.52633 16.2675 10.5074 16.4628C11.4884 16.658 12.5053 16.5578 13.4294 16.1748C14.3535 15.7919 15.1433 15.1433 15.6991 14.3112C16.2548 13.4791 16.5514 12.5008 16.5514 11.5C16.5499 10.1585 16.0165 8.87232 15.0684 7.92372C14.1203 6.97512 12.8348 6.44152 11.494 6.44ZM11.494 15.64C10.6756 15.64 9.87561 15.3972 9.19515 14.9423C8.51468 14.4874 7.98432 13.8408 7.67114 13.0843C7.35796 12.3278 7.27601 11.4954 7.43567 10.6923C7.59533 9.88925 7.98943 9.15157 8.56811 8.57258C9.1468 7.99359 9.88409 7.59929 10.6868 7.43955C11.4894 7.27981 12.3214 7.36179 13.0775 7.67514C13.8336 7.98849 14.4798 8.51912 14.9345 9.19994C15.3892 9.88076 15.6319 10.6812 15.6319 11.5C15.6319 12.598 15.1959 13.651 14.4199 14.4274C13.6439 15.2038 12.5914 15.64 11.494 15.64ZM17.0111 0H5.97689C4.39228 0.00182619 2.87309 0.632446 1.7526 1.75352C0.632117 2.87459 0.00182524 4.39457 0 5.98V17.02C0.00182524 18.6054 0.632117 20.1254 1.7526 21.2465C2.87309 22.3676 4.39228 22.9982 5.97689 23H17.0111C18.5957 22.9982 20.1149 22.3676 21.2354 21.2465C22.3559 20.1254 22.9862 18.6054 22.988 17.02V5.98C22.9862 4.39457 22.3559 2.87459 21.2354 1.75352C20.1149 0.632446 18.5957 0.00182619 17.0111 0ZM22.0685 17.02C22.067 18.3615 21.5337 19.6477 20.5856 20.5963C19.6374 21.5449 18.352 22.0785 17.0111 22.08H5.97689C4.63606 22.0785 3.35058 21.5449 2.40247 20.5963C1.45436 19.6477 0.921042 18.3615 0.919521 17.02V5.98C0.921042 4.63847 1.45436 3.35232 2.40247 2.40372C3.35058 1.45512 4.63606 0.921522 5.97689 0.92H17.0111C18.352 0.921522 19.6374 1.45512 20.5856 2.40372C21.5337 3.35232 22.067 4.63847 22.0685 5.98V17.02ZM18.3904 5.52C18.3904 5.70196 18.3365 5.87983 18.2354 6.03113C18.1344 6.18242 17.9908 6.30034 17.8228 6.36997C17.6548 6.4396 17.4699 6.45782 17.2915 6.42232C17.1131 6.38682 16.9493 6.2992 16.8207 6.17054C16.6921 6.04187 16.6045 5.87795 16.569 5.69948C16.5336 5.52102 16.5518 5.33604 16.6214 5.16793C16.691 4.99982 16.8088 4.85614 16.96 4.75505C17.1112 4.65396 17.289 4.6 17.4709 4.6C17.7148 4.6 17.9487 4.69693 18.1211 4.86946C18.2935 5.042 18.3904 5.276 18.3904 5.52Z" fill="white"/>
</svg>
