<svg width="109" height="108" viewBox="0 0 109 108" fill="none" xmlns="http://www.w3.org/2000/svg">
<path d="M72.6712 36C59.9455 36 48.7321 42.516 42.2375 52.353C39.6215 51.111 36.7966 50.2425 33.8263 49.8105L46.0843 33.615L35.9836 22.4955H23.058L12.9574 33.615L25.2153 49.8105C10.9727 51.8805 0 64.071 0 78.75C0 94.878 13.2435 108 29.5208 108C37.3779 108 44.522 104.945 49.8175 99.9675C56.0623 104.985 64.0148 108 72.6667 108C92.7 108 109 91.8495 109 72C109 52.1505 92.7045 36 72.6712 36ZM25.0836 27H33.9626L40.2119 33.8805L29.5208 48.0015L18.8297 33.8805L25.0836 27ZM4.54621 78.75C4.54621 65.106 15.7505 54 29.5254 54C33.2586 54 36.8057 54.819 39.9894 56.2815C37.6504 61.0335 36.3379 66.3705 36.3379 72C36.3379 81.6615 40.1983 90.441 46.4703 96.9165C42.015 101.003 36.0608 103.5 29.5254 103.5C15.7505 103.5 4.54621 92.394 4.54621 78.75ZM49.5223 93.564C44.1677 87.9255 40.8795 80.334 40.8795 72C40.8795 67.1895 41.9741 62.6265 43.9315 58.5405C50.3262 63.027 54.5045 70.416 54.5045 78.75C54.5045 84.303 52.6515 89.433 49.5223 93.564ZM72.6712 103.5C65.1911 103.5 58.3105 100.926 52.8741 96.6285C56.7436 91.683 59.0462 85.4775 59.0462 78.75C59.0462 68.7375 53.9414 59.886 46.1751 54.612C51.8749 46.116 61.6213 40.5 72.6712 40.5C90.202 40.5 104.463 54.6345 104.463 72C104.463 89.3655 90.202 103.5 72.6712 103.5ZM43.4456 16.389L40.2346 13.2075L50.6305 2.9115L53.8415 6.093L43.4456 16.389ZM15.4326 16.218L5.20929 6.093L8.42025 2.9115L18.639 13.0365L15.428 16.218H15.4326ZM31.8007 13.5H27.2591V0H31.8007V13.5Z" fill="url(#paint0_linear_343_183)"/>
<defs>
<linearGradient id="paint0_linear_343_183" x1="54.5" y1="0" x2="54.5" y2="108" gradientUnits="userSpaceOnUse">
<stop stop-color="#B9252F"/>
<stop offset="1" stop-color="#6A2C2D"/>
</linearGradient>
</defs>
</svg>
