<svg width="85" height="114" viewBox="0 0 85 114" fill="none" xmlns="http://www.w3.org/2000/svg">
<path d="M84.0589 55.7662C84.0174 54.88 83.5191 54.0813 82.7405 53.6485C82.3097 53.4063 72.0846 47.8055 60.8059 50.4333C52.8334 52.2985 45.572 57.2811 42.3851 59.708C39.1982 57.2811 31.9368 52.2985 23.9643 50.4333C12.6855 47.8158 2.46041 53.4063 2.02961 53.6485C1.25624 54.0813 0.752767 54.88 0.711243 55.7662C0.332343 63.2787 -0.778405 88.0988 0.903288 92.1281C5.72518 103.593 38.0563 112.295 41.7207 113.269C42.3072 113.424 42.8211 113.326 43.0391 113.269C46.7087 112.311 79.0398 103.593 83.8565 92.123C85.5382 88.0988 84.4274 63.2736 84.0485 55.7611L84.0589 55.7662ZM5.70961 90.165C4.89472 87.8927 5.12828 72.0742 5.8238 57.5336C8.56953 56.3021 15.4728 53.7464 22.7809 55.4519C30.2655 57.1987 37.3452 62.3306 39.7899 64.2371V107.39C26.8086 103.66 8.35672 96.4666 5.70961 90.165ZM79.0709 90.1444C76.4134 96.4666 57.9667 103.66 44.9855 107.39V64.2371C47.4302 62.3306 54.4891 57.209 61.9945 55.4519C69.1988 53.7619 76.1747 56.3073 78.9515 57.5387C79.6522 72.0742 79.8858 87.8875 79.0709 90.1444Z" fill="url(#paint0_linear_343_194)"/>
<path d="M42.4049 42.2513C56.0142 42.1689 63.3379 34.8779 63.5922 21.0793C63.3586 7.57432 55.8325 0.0875942 42.3738 0C28.7593 0.0875942 21.1865 7.46612 21.1865 21.172C21.1865 34.6512 28.7645 42.174 42.4049 42.2513ZM42.3738 5.1526C52.9726 5.21958 58.2201 10.4598 58.4018 21.0793C58.1994 32.0955 53.2581 37.0369 42.4049 37.0987C31.6867 37.0369 26.5897 31.9616 26.3769 21.1257C26.5846 10.2949 31.6763 5.21958 42.3738 5.1526Z" fill="url(#paint1_linear_343_194)"/>
<defs>
<linearGradient id="paint0_linear_343_194" x1="42.3799" y1="49.7334" x2="42.3799" y2="113.352" gradientUnits="userSpaceOnUse">
<stop stop-color="#B9252F"/>
<stop offset="1" stop-color="#6A2C2D"/>
</linearGradient>
<linearGradient id="paint1_linear_343_194" x1="42.3894" y1="0" x2="42.3894" y2="42.2513" gradientUnits="userSpaceOnUse">
<stop stop-color="#B9252F"/>
<stop offset="1" stop-color="#6A2C2D"/>
</linearGradient>
</defs>
</svg>
