<svg width="23" height="23" viewBox="0 0 23 23" fill="none" xmlns="http://www.w3.org/2000/svg">
<path d="M18.1399 13.8483L14.4615 12.0083C14.3891 11.9722 14.3085 11.9559 14.2278 11.9609C14.147 11.966 14.0691 11.9922 14.0017 12.037L12.089 13.3135C11.0376 12.8091 10.1897 11.9608 9.68541 10.9089L10.9613 8.9953C11.0062 8.92793 11.0324 8.84993 11.0375 8.76916C11.0425 8.6884 11.0262 8.60773 10.9901 8.5353L9.1509 4.8553C9.11275 4.77849 9.05389 4.71387 8.98097 4.66876C8.90805 4.62365 8.82397 4.59983 8.73824 4.6C7.64073 4.6 6.58818 5.03618 5.81212 5.81258C5.03607 6.58898 4.60008 7.642 4.60008 8.74C4.60282 11.3012 5.621 13.7566 7.43119 15.5676C9.24139 17.3786 11.6958 18.3973 14.2558 18.4C15.3533 18.4 16.4058 17.9638 17.1819 17.1874C17.9579 16.411 18.3939 15.358 18.3939 14.26C18.394 14.1745 18.3703 14.0908 18.3254 14.018C18.2805 13.9453 18.2163 13.8865 18.1399 13.8483ZM14.2558 17.48C11.9396 17.4776 9.71892 16.556 8.08111 14.9174C6.4433 13.2789 5.52211 11.0572 5.51967 8.74C5.51954 7.93408 5.82148 7.15742 6.36587 6.56339C6.91026 5.96936 7.65752 5.60115 8.46006 5.5315L10.0464 8.70665L8.78192 10.6087C8.73977 10.6715 8.71374 10.7437 8.70612 10.8189C8.6985 10.8941 8.70953 10.9701 8.73824 11.04C9.34913 12.493 10.5045 13.6488 11.9568 14.26C12.0268 14.2891 12.1028 14.3004 12.1782 14.293C12.2536 14.2856 12.326 14.2596 12.389 14.2175L14.2903 12.9524L17.464 14.5394C17.3941 15.3423 17.0258 16.0898 16.4318 16.6342C15.8378 17.1787 15.0613 17.4804 14.2558 17.48ZM11.497 1.98681e-07C9.49585 -0.0003719 7.52926 0.521925 5.79177 1.51523C4.05429 2.50853 2.6061 3.93842 1.59046 5.66347C0.574825 7.38851 0.0269281 9.34893 0.00096753 11.3508C-0.0249931 13.3527 0.471882 15.3267 1.44244 17.0775L0.0745541 21.1818C-0.00649795 21.425 -0.0182603 21.6859 0.0405851 21.9354C0.0994305 22.1849 0.226558 22.413 0.40772 22.5942C0.588881 22.7755 0.816917 22.9027 1.06627 22.9615C1.31562 23.0204 1.57643 23.0086 1.81948 22.9275L5.92199 21.559C7.45662 22.4098 9.16553 22.8977 10.9178 22.9856C12.67 23.0734 14.4192 22.7589 16.0311 22.0659C17.6431 21.373 19.0751 20.3201 20.2174 18.9879C21.3598 17.6557 22.1822 16.0796 22.6216 14.3803C23.0611 12.681 23.1059 10.9036 22.7526 9.18435C22.3993 7.46506 21.6573 5.84949 20.5835 4.46141C19.5097 3.07333 18.1325 1.94959 16.5575 1.17627C14.9825 0.402956 13.2515 0.000588839 11.497 1.98681e-07ZM11.497 22.08C9.63767 22.0806 7.81106 21.5907 6.20132 20.6597C6.13136 20.6195 6.05214 20.5981 5.97142 20.5976C5.92178 20.5978 5.87248 20.6059 5.82544 20.6218L1.52866 22.0547C1.44764 22.0817 1.3607 22.0857 1.27759 22.066C1.19447 22.0464 1.11846 22.004 1.05807 21.9436C0.997683 21.8832 0.955307 21.8071 0.935692 21.724C0.916077 21.6408 0.919998 21.5539 0.947015 21.4728L2.37928 17.1741C2.39994 17.1123 2.40724 17.0468 2.4007 16.982C2.39416 16.9172 2.37393 16.8545 2.34134 16.798C1.17542 14.7818 0.70718 12.437 1.00926 10.1273C1.31134 7.81768 2.36685 5.67232 4.01205 4.02407C5.65725 2.37582 7.80016 1.31682 10.1084 1.01136C12.4165 0.705905 14.761 1.17106 16.778 2.33467C18.7949 3.49827 20.3717 5.29528 21.2637 7.44692C22.1556 9.59855 22.3129 11.9845 21.7111 14.2347C21.1092 16.4849 19.782 18.4735 17.9352 19.892C16.0884 21.3105 13.8253 22.0796 11.497 22.08Z" fill="white"/>
</svg>
